G04 Layer: TopSilkLayer*
G04 EasyEDA v6.3.22, 2020-01-02T17:57:10--6:00*
G04 9629da53efd44d938a0aa96a75fe1ddf,91dbd57421b04f99998894d68b3b19aa,10*
G04 Gerber Generator version 0.2*
G04 Scale: 100 percent, Rotated: No, Reflected: No *
G04 Dimensions in millimeters *
G04 leading zeros omitted , absolute positions ,3 integer and 3 decimal *
%FSLAX33Y33*%
%MOMM*%
G90*
G71D02*

%ADD10C,0.254000*%
%ADD24C,0.127000*%
%ADD25C,0.203200*%
%ADD26C,0.202999*%
%ADD27C,0.499999*%
%ADD28C,0.152400*%

%LPD*%
G54D24*
G01X167729Y21730D02*
G01X167729Y67450D01*
G01X167729Y69990D01*
G01X167729Y82690D01*
G01X170269Y82690D01*
G01X174079Y82690D01*
G01X179159Y82690D01*
G01X182969Y82690D01*
G01X185509Y82690D01*
G01X185509Y69990D01*
G01X185509Y67450D01*
G01X185509Y21730D01*
G01X182969Y21730D01*
G01X170269Y21730D01*
G01X167729Y21730D01*
G01X167729Y69990D02*
G01X170269Y69990D01*
G01X174079Y69990D01*
G01X179159Y69990D01*
G01X182969Y69990D01*
G01X185509Y69990D01*
G01X170269Y21730D02*
G01X170269Y69990D01*
G01X170269Y82690D01*
G01X182969Y21730D02*
G01X182969Y69990D01*
G01X182969Y82690D01*
G01X174079Y69990D02*
G01X174079Y82690D01*
G01X179159Y82690D02*
G01X179159Y69990D01*
G01X167729Y67450D02*
G01X185509Y67450D01*
G01X174095Y67443D02*
G01X174095Y60508D01*
G01X174984Y59619D01*
G01X178336Y59619D01*
G01X179200Y60483D01*
G01X179200Y67341D01*
G01X179124Y67417D01*
G54D10*
G01X26000Y88999D02*
G01X26000Y47000D01*
G01X5000Y47000D01*
G01X5000Y88999D01*
G01X26000Y88999D01*
G01X114460Y83000D02*
G01X115460Y84000D01*
G01X119460Y84000D01*
G01X120460Y83000D01*
G01X120460Y79000D01*
G01X119460Y78000D01*
G01X115460Y78000D01*
G01X114460Y79000D01*
G01X114460Y83000D01*
G01X114460Y84000D02*
G01X120460Y84000D01*
G01X120460Y78000D01*
G01X114460Y78000D01*
G01X114460Y84000D01*
G01X154540Y83000D02*
G01X155539Y84000D01*
G01X159539Y84000D01*
G01X160539Y83000D01*
G01X160539Y79000D01*
G01X159539Y78000D01*
G01X155539Y78000D01*
G01X154540Y79000D01*
G01X154540Y83000D01*
G01X154540Y84000D02*
G01X160539Y84000D01*
G01X160539Y78000D01*
G01X154540Y78000D01*
G01X154540Y84000D01*
G01X114460Y68000D02*
G01X115460Y69000D01*
G01X119460Y69000D01*
G01X120460Y68000D01*
G01X120460Y64000D01*
G01X119460Y63000D01*
G01X115460Y63000D01*
G01X114460Y64000D01*
G01X114460Y68000D01*
G01X114460Y69000D02*
G01X120460Y69000D01*
G01X120460Y63000D01*
G01X114460Y63000D01*
G01X114460Y69000D01*
G01X154540Y68000D02*
G01X155539Y69000D01*
G01X159539Y69000D01*
G01X160539Y68000D01*
G01X160539Y64000D01*
G01X159539Y63000D01*
G01X155539Y63000D01*
G01X154540Y64000D01*
G01X154540Y68000D01*
G01X154540Y69000D02*
G01X160539Y69000D01*
G01X160539Y63000D01*
G01X154540Y63000D01*
G01X154540Y69000D01*
G01X88999Y69646D02*
G01X88999Y72357D01*
G01X84890Y75724D02*
G01X94390Y75724D01*
G01X94390Y66224D01*
G01X84890Y66224D01*
G01X84890Y75724D01*
G54D25*
G01X99319Y85270D02*
G01X99319Y82730D01*
G01X58679Y82730D01*
G01X58679Y85270D01*
G01X60584Y85270D01*
G54D26*
G01X99319Y85270D02*
G01X60584Y85270D01*
G54D25*
G01X104269Y42905D02*
G01X104269Y44810D01*
G01X101729Y44810D01*
G01X101729Y37190D01*
G01X104269Y37190D01*
G54D26*
G01X104269Y37190D02*
G01X104269Y42905D01*
G54D25*
G01X153094Y12270D02*
G01X151189Y12270D01*
G01X151189Y9730D01*
G01X158809Y9730D01*
G01X158809Y12270D01*
G54D26*
G01X158809Y12270D02*
G01X153094Y12270D01*
G54D25*
G01X34270Y42905D02*
G01X34270Y44810D01*
G01X31730Y44810D01*
G01X31730Y37190D01*
G01X34270Y37190D01*
G54D26*
G01X34270Y37190D02*
G01X34270Y42905D01*
G54D25*
G01X78555Y12270D02*
G01X76650Y12270D01*
G01X76650Y9730D01*
G01X84270Y9730D01*
G01X84270Y12270D01*
G54D26*
G01X84270Y12270D02*
G01X78555Y12270D01*
G54D25*
G01X26270Y21905D02*
G01X26270Y23810D01*
G01X23730Y23810D01*
G01X23730Y16190D01*
G01X26270Y16190D01*
G54D26*
G01X26270Y16190D02*
G01X26270Y21905D01*
G54D25*
G01X96270Y21905D02*
G01X96270Y23810D01*
G01X93730Y23810D01*
G01X93730Y16190D01*
G01X96270Y16190D01*
G54D26*
G01X96270Y16190D02*
G01X96270Y21905D01*
G54D25*
G01X48270Y86459D02*
G01X45730Y86459D01*
G01X45730Y91539D01*
G01X48270Y91539D01*
G01X48270Y89634D01*
G54D26*
G01X48270Y86459D02*
G01X48270Y89634D01*
G54D25*
G01X38270Y86459D02*
G01X35730Y86459D01*
G01X35730Y91539D01*
G01X38270Y91539D01*
G01X38270Y89634D01*
G54D26*
G01X38270Y86459D02*
G01X38270Y89634D01*
G54D27*
G01X45591Y59045D02*
G01X45591Y54272D01*
G01X44001Y59045D02*
G01X47181Y59045D01*
G01X48682Y56091D02*
G01X51410Y56091D01*
G01X51410Y56545D01*
G01X51181Y57000D01*
G01X50955Y57226D01*
G01X50500Y57455D01*
G01X49817Y57455D01*
G01X49362Y57226D01*
G01X48908Y56771D01*
G01X48682Y56091D01*
G01X48682Y55636D01*
G01X48908Y54955D01*
G01X49362Y54501D01*
G01X49817Y54272D01*
G01X50500Y54272D01*
G01X50955Y54501D01*
G01X51410Y54955D01*
G01X52908Y56091D02*
G01X55636Y56091D01*
G01X55636Y56545D01*
G01X55408Y57000D01*
G01X55182Y57226D01*
G01X54727Y57455D01*
G01X54044Y57455D01*
G01X53592Y57226D01*
G01X53137Y56771D01*
G01X52908Y56091D01*
G01X52908Y55636D01*
G01X53137Y54955D01*
G01X53592Y54501D01*
G01X54044Y54272D01*
G01X54727Y54272D01*
G01X55182Y54501D01*
G01X55636Y54955D01*
G01X57135Y57455D02*
G01X57135Y54272D01*
G01X57135Y56545D02*
G01X57818Y57226D01*
G01X58273Y57455D01*
G01X58954Y57455D01*
G01X59408Y57226D01*
G01X59637Y56545D01*
G01X59637Y54272D01*
G01X63635Y56771D02*
G01X63409Y57226D01*
G01X62728Y57455D01*
G01X62045Y57455D01*
G01X61364Y57226D01*
G01X61135Y56771D01*
G01X61364Y56317D01*
G01X61819Y56091D01*
G01X62954Y55862D01*
G01X63409Y55636D01*
G01X63635Y55181D01*
G01X63635Y54955D01*
G01X63409Y54501D01*
G01X62728Y54272D01*
G01X62045Y54272D01*
G01X61364Y54501D01*
G01X61135Y54955D01*
G01X65362Y57455D02*
G01X66726Y54272D01*
G01X68090Y57455D02*
G01X66726Y54272D01*
G01X66271Y53363D01*
G01X65817Y52908D01*
G01X65362Y52682D01*
G01X65136Y52682D01*
G01X73091Y59045D02*
G01X73091Y54272D01*
G01X73091Y59045D02*
G01X75136Y59045D01*
G01X75817Y58819D01*
G01X76045Y58590D01*
G01X76271Y58135D01*
G01X76271Y57455D01*
G01X76045Y57000D01*
G01X75817Y56771D01*
G01X75136Y56545D01*
G01X73091Y56545D01*
G01X77772Y56091D02*
G01X80500Y56091D01*
G01X80500Y56545D01*
G01X80272Y57000D01*
G01X80046Y57226D01*
G01X79591Y57455D01*
G01X78908Y57455D01*
G01X78453Y57226D01*
G01X77998Y56771D01*
G01X77772Y56091D01*
G01X77772Y55636D01*
G01X77998Y54955D01*
G01X78453Y54501D01*
G01X78908Y54272D01*
G01X79591Y54272D01*
G01X80046Y54501D01*
G01X80500Y54955D01*
G01X84727Y59045D02*
G01X84727Y54272D01*
G01X84727Y56771D02*
G01X84272Y57226D01*
G01X83818Y57455D01*
G01X83137Y57455D01*
G01X82682Y57226D01*
G01X82228Y56771D01*
G01X81999Y56091D01*
G01X81999Y55636D01*
G01X82228Y54955D01*
G01X82682Y54501D01*
G01X83137Y54272D01*
G01X83818Y54272D01*
G01X84272Y54501D01*
G01X84727Y54955D01*
G01X88953Y57455D02*
G01X88953Y54272D01*
G01X88953Y56771D02*
G01X88499Y57226D01*
G01X88044Y57455D01*
G01X87363Y57455D01*
G01X86909Y57226D01*
G01X86454Y56771D01*
G01X86225Y56091D01*
G01X86225Y55636D01*
G01X86454Y54955D01*
G01X86909Y54501D01*
G01X87363Y54272D01*
G01X88044Y54272D01*
G01X88499Y54501D01*
G01X88953Y54955D01*
G01X90455Y59045D02*
G01X90455Y54272D01*
G01X95453Y57455D02*
G01X96817Y54272D01*
G01X98181Y57455D02*
G01X96817Y54272D01*
G01X99908Y57909D02*
G01X99908Y58135D01*
G01X100135Y58590D01*
G01X100363Y58819D01*
G01X100818Y59045D01*
G01X101727Y59045D01*
G01X102182Y58819D01*
G01X102408Y58590D01*
G01X102636Y58135D01*
G01X102636Y57681D01*
G01X102408Y57226D01*
G01X101953Y56545D01*
G01X99682Y54272D01*
G01X102862Y54272D01*
G01X104590Y55407D02*
G01X104364Y55181D01*
G01X104590Y54955D01*
G01X104818Y55181D01*
G01X104590Y55407D01*
G01X106317Y58135D02*
G01X106772Y58364D01*
G01X107455Y59045D01*
G01X107455Y54272D01*
G54D28*
G01X166591Y51999D02*
G01X166541Y52104D01*
G01X166383Y52259D01*
G01X167475Y52259D01*
G54D25*
G01X174600Y35365D02*
G01X177023Y35365D01*
G01X174600Y34557D02*
G01X174600Y36173D01*
G01X174600Y36935D02*
G01X177023Y36935D01*
G01X174600Y36935D02*
G01X174600Y38436D01*
G01X175753Y36935D02*
G01X175753Y37859D01*
G01X177023Y36935D02*
G01X177023Y38436D01*
G01X174600Y39198D02*
G01X177023Y39198D01*
G01X174600Y39198D02*
G01X174600Y40699D01*
G01X175753Y39198D02*
G01X175753Y40122D01*
G01X177023Y39198D02*
G01X177023Y40699D01*
G01X174600Y41461D02*
G01X177023Y41461D01*
G01X174600Y41461D02*
G01X177023Y43076D01*
G01X174600Y43076D02*
G01X177023Y43076D01*
G01X174945Y45456D02*
G01X174714Y45225D01*
G01X174600Y44877D01*
G01X174600Y44418D01*
G01X174714Y44070D01*
G01X174945Y43838D01*
G01X175177Y43838D01*
G01X175408Y43955D01*
G01X175522Y44070D01*
G01X175639Y44301D01*
G01X175870Y44994D01*
G01X175984Y45225D01*
G01X176101Y45340D01*
G01X176330Y45456D01*
G01X176678Y45456D01*
G01X176909Y45225D01*
G01X177023Y44877D01*
G01X177023Y44418D01*
G01X176909Y44070D01*
G01X176678Y43838D01*
G01X174600Y46218D02*
G01X175753Y47140D01*
G01X177023Y47140D01*
G01X174600Y48065D02*
G01X175753Y47140D01*
G01X174600Y50836D02*
G01X174600Y52106D01*
G01X175522Y51413D01*
G01X175522Y51758D01*
G01X175639Y51989D01*
G01X175753Y52106D01*
G01X176101Y52220D01*
G01X176330Y52220D01*
G01X176678Y52106D01*
G01X176909Y51875D01*
G01X177023Y51530D01*
G01X177023Y51182D01*
G01X176909Y50836D01*
G01X176792Y50719D01*
G01X176561Y50605D01*
G01X176447Y53099D02*
G01X176561Y52982D01*
G01X176678Y53099D01*
G01X176561Y53214D01*
G01X176447Y53099D01*
G01X174945Y55362D02*
G01X174714Y55246D01*
G01X174600Y54900D01*
G01X174600Y54669D01*
G01X174714Y54324D01*
G01X175060Y54092D01*
G01X175639Y53976D01*
G01X176215Y53976D01*
G01X176678Y54092D01*
G01X176909Y54324D01*
G01X177023Y54669D01*
G01X177023Y54783D01*
G01X176909Y55131D01*
G01X176678Y55362D01*
G01X176330Y55477D01*
G01X176215Y55477D01*
G01X175870Y55362D01*
G01X175639Y55131D01*
G01X175522Y54783D01*
G01X175522Y54669D01*
G01X175639Y54324D01*
G01X175870Y54092D01*
G01X176215Y53976D01*
G54D28*
G01X26254Y66376D02*
G01X27031Y66376D01*
G01X27189Y66426D01*
G01X27293Y66531D01*
G01X27343Y66688D01*
G01X27343Y66792D01*
G01X27293Y66947D01*
G01X27189Y67051D01*
G01X27031Y67102D01*
G01X26254Y67102D01*
G01X26513Y67498D02*
G01X26460Y67498D01*
G01X26355Y67549D01*
G01X26305Y67602D01*
G01X26254Y67707D01*
G01X26254Y67912D01*
G01X26305Y68017D01*
G01X26355Y68070D01*
G01X26460Y68121D01*
G01X26564Y68121D01*
G01X26668Y68070D01*
G01X26825Y67966D01*
G01X27343Y67445D01*
G01X27343Y68174D01*
G54D25*
G01X20999Y57446D02*
G01X20908Y57631D01*
G01X20723Y57817D01*
G01X20540Y57908D01*
G01X20263Y57999D01*
G01X19801Y57999D01*
G01X19524Y57908D01*
G01X19338Y57817D01*
G01X19153Y57631D01*
G01X19061Y57446D01*
G01X19061Y57077D01*
G01X19153Y56892D01*
G01X19338Y56707D01*
G01X19524Y56615D01*
G01X19801Y56524D01*
G01X20263Y56524D01*
G01X20540Y56615D01*
G01X20723Y56707D01*
G01X20908Y56892D01*
G01X20999Y57077D01*
G01X20999Y57446D01*
G01X20999Y55914D02*
G01X19615Y55914D01*
G01X19338Y55820D01*
G01X19153Y55637D01*
G01X19061Y55358D01*
G01X19061Y55175D01*
G01X19153Y54898D01*
G01X19338Y54713D01*
G01X19615Y54621D01*
G01X20999Y54621D01*
G01X20999Y53364D02*
G01X19061Y53364D01*
G01X20999Y54012D02*
G01X20999Y52716D01*
G01X20723Y49854D02*
G01X19061Y49854D01*
G01X19892Y50684D02*
G01X19892Y49023D01*
G01X13999Y57446D02*
G01X13906Y57631D01*
G01X13723Y57817D01*
G01X13537Y57908D01*
G01X13260Y58000D01*
G01X12798Y58000D01*
G01X12521Y57908D01*
G01X12336Y57817D01*
G01X12150Y57631D01*
G01X12059Y57446D01*
G01X12059Y57078D01*
G01X12150Y56892D01*
G01X12336Y56707D01*
G01X12521Y56615D01*
G01X12798Y56524D01*
G01X13260Y56524D01*
G01X13537Y56615D01*
G01X13723Y56707D01*
G01X13906Y56892D01*
G01X13999Y57078D01*
G01X13999Y57446D01*
G01X13999Y55914D02*
G01X12613Y55914D01*
G01X12336Y55820D01*
G01X12150Y55637D01*
G01X12059Y55358D01*
G01X12059Y55175D01*
G01X12150Y54898D01*
G01X12336Y54713D01*
G01X12613Y54621D01*
G01X13999Y54621D01*
G01X13999Y53364D02*
G01X12059Y53364D01*
G01X13999Y54012D02*
G01X13999Y52716D01*
G01X12890Y50684D02*
G01X12890Y49023D01*
G01X12046Y86000D02*
G01X10108Y86000D01*
G01X12046Y85390D02*
G01X10108Y85390D01*
G01X12046Y85390D02*
G01X10108Y84097D01*
G01X12046Y84097D02*
G01X10108Y84097D01*
G01X10939Y82065D02*
G01X10939Y80402D01*
G01X20000Y86000D02*
G01X18062Y86000D01*
G01X20000Y85390D02*
G01X18062Y85390D01*
G01X20000Y85390D02*
G01X18062Y84097D01*
G01X20000Y84097D02*
G01X18062Y84097D01*
G01X19723Y81234D02*
G01X18062Y81234D01*
G01X18892Y82065D02*
G01X18892Y80401D01*
G54D28*
G01X116726Y75842D02*
G01X116622Y75946D01*
G01X116467Y76000D01*
G01X116258Y76000D01*
G01X116104Y75946D01*
G01X115999Y75842D01*
G01X115999Y75738D01*
G01X116050Y75634D01*
G01X116104Y75583D01*
G01X116208Y75530D01*
G01X116520Y75428D01*
G01X116622Y75375D01*
G01X116675Y75324D01*
G01X116726Y75220D01*
G01X116726Y75062D01*
G01X116622Y74958D01*
G01X116467Y74907D01*
G01X116258Y74907D01*
G01X116104Y74958D01*
G01X115999Y75062D01*
G01X117069Y74544D02*
G01X118006Y74544D01*
G01X118349Y76000D02*
G01X118349Y74907D01*
G01X118349Y76000D02*
G01X119022Y76000D01*
G01X118349Y75479D02*
G01X118763Y75479D01*
G01X156726Y75842D02*
G01X156622Y75946D01*
G01X156467Y76000D01*
G01X156259Y76000D01*
G01X156104Y75946D01*
G01X156000Y75842D01*
G01X156000Y75738D01*
G01X156051Y75634D01*
G01X156104Y75583D01*
G01X156208Y75530D01*
G01X156521Y75428D01*
G01X156622Y75375D01*
G01X156676Y75324D01*
G01X156726Y75220D01*
G01X156726Y75062D01*
G01X156622Y74958D01*
G01X156467Y74907D01*
G01X156259Y74907D01*
G01X156104Y74958D01*
G01X156000Y75062D01*
G01X157069Y74544D02*
G01X158007Y74544D01*
G01X158349Y76000D02*
G01X158349Y74907D01*
G01X158349Y76000D02*
G01X158817Y76000D01*
G01X158972Y75946D01*
G01X159023Y75895D01*
G01X159076Y75791D01*
G01X159076Y75687D01*
G01X159023Y75583D01*
G01X158972Y75530D01*
G01X158817Y75479D01*
G01X158349Y75479D02*
G01X158817Y75479D01*
G01X158972Y75428D01*
G01X159023Y75375D01*
G01X159076Y75271D01*
G01X159076Y75116D01*
G01X159023Y75012D01*
G01X158972Y74958D01*
G01X158817Y74907D01*
G01X158349Y74907D01*
G01X116000Y60999D02*
G01X116000Y59907D01*
G01X116000Y60999D02*
G01X116675Y60999D01*
G01X116000Y60479D02*
G01X116416Y60479D01*
G01X116000Y59907D02*
G01X116675Y59907D01*
G01X117018Y59544D02*
G01X117953Y59544D01*
G01X118296Y60999D02*
G01X118296Y59907D01*
G01X118296Y60999D02*
G01X118971Y60999D01*
G01X118296Y60479D02*
G01X118712Y60479D01*
G01X156000Y61000D02*
G01X156000Y59907D01*
G01X156000Y61000D02*
G01X156676Y61000D01*
G01X156000Y60479D02*
G01X156417Y60479D01*
G01X156000Y59907D02*
G01X156676Y59907D01*
G01X157018Y59544D02*
G01X157953Y59544D01*
G01X158296Y61000D02*
G01X158296Y59907D01*
G01X158296Y61000D02*
G01X158763Y61000D01*
G01X158921Y60946D01*
G01X158972Y60895D01*
G01X159023Y60791D01*
G01X159023Y60687D01*
G01X158972Y60583D01*
G01X158921Y60530D01*
G01X158763Y60479D01*
G01X158296Y60479D02*
G01X158763Y60479D01*
G01X158921Y60428D01*
G01X158972Y60375D01*
G01X159023Y60271D01*
G01X159023Y60116D01*
G01X158972Y60011D01*
G01X158921Y59958D01*
G01X158763Y59907D01*
G01X158296Y59907D01*
G01X84749Y65000D02*
G01X84749Y63910D01*
G01X84749Y63910D02*
G01X85372Y63910D01*
G01X86494Y64740D02*
G01X86443Y64845D01*
G01X86339Y64949D01*
G01X86235Y65000D01*
G01X86027Y65000D01*
G01X85923Y64949D01*
G01X85819Y64845D01*
G01X85768Y64740D01*
G01X85715Y64586D01*
G01X85715Y64324D01*
G01X85768Y64169D01*
G01X85819Y64065D01*
G01X85923Y63961D01*
G01X86027Y63910D01*
G01X86235Y63910D01*
G01X86339Y63961D01*
G01X86443Y64065D01*
G01X86494Y64169D01*
G01X86837Y65000D02*
G01X86837Y63910D01*
G01X86837Y65000D02*
G01X87200Y65000D01*
G01X87358Y64949D01*
G01X87462Y64845D01*
G01X87513Y64740D01*
G01X87566Y64586D01*
G01X87566Y64324D01*
G01X87513Y64169D01*
G01X87462Y64065D01*
G01X87358Y63961D01*
G01X87200Y63910D01*
G01X86837Y63910D01*
G01X87909Y63544D02*
G01X88844Y63544D01*
G01X89966Y64740D02*
G01X89913Y64845D01*
G01X89809Y64949D01*
G01X89705Y65000D01*
G01X89499Y65000D01*
G01X89395Y64949D01*
G01X89291Y64845D01*
G01X89237Y64740D01*
G01X89187Y64586D01*
G01X89187Y64324D01*
G01X89237Y64169D01*
G01X89291Y64065D01*
G01X89395Y63961D01*
G01X89499Y63910D01*
G01X89705Y63910D01*
G01X89809Y63961D01*
G01X89913Y64065D01*
G01X89966Y64169D01*
G01X90619Y65000D02*
G01X90515Y64949D01*
G01X90414Y64845D01*
G01X90360Y64740D01*
G01X90309Y64586D01*
G01X90309Y64324D01*
G01X90360Y64169D01*
G01X90414Y64065D01*
G01X90515Y63961D01*
G01X90619Y63910D01*
G01X90828Y63910D01*
G01X90932Y63961D01*
G01X91036Y64065D01*
G01X91087Y64169D01*
G01X91140Y64324D01*
G01X91140Y64586D01*
G01X91087Y64740D01*
G01X91036Y64845D01*
G01X90932Y64949D01*
G01X90828Y65000D01*
G01X90619Y65000D01*
G01X91483Y65000D02*
G01X91483Y63910D01*
G01X91483Y65000D02*
G01X92209Y63910D01*
G01X92209Y65000D02*
G01X92209Y63910D01*
G01X92915Y65000D02*
G01X92915Y63910D01*
G01X92552Y65000D02*
G01X93281Y65000D01*
G01X57333Y84000D02*
G01X58425Y84000D01*
G01X57333Y84000D02*
G01X57333Y84467D01*
G01X57387Y84622D01*
G01X57437Y84675D01*
G01X57542Y84726D01*
G01X57699Y84726D01*
G01X57803Y84675D01*
G01X57854Y84622D01*
G01X57905Y84467D01*
G01X57905Y84000D01*
G01X57542Y85069D02*
G01X57491Y85173D01*
G01X57333Y85330D01*
G01X58425Y85330D01*
G01X99000Y36729D02*
G01X100090Y36729D01*
G01X99000Y36729D02*
G01X99000Y37405D01*
G01X99518Y36729D02*
G01X99518Y37146D01*
G01X100090Y36729D02*
G01X100090Y37405D01*
G01X99000Y37748D02*
G01X100090Y37748D01*
G01X99000Y37748D02*
G01X99000Y38423D01*
G01X99518Y37748D02*
G01X99518Y38164D01*
G01X99000Y38766D02*
G01X100090Y38766D01*
G01X99000Y38766D02*
G01X99000Y39442D01*
G01X99518Y38766D02*
G01X99518Y39183D01*
G01X99000Y39785D02*
G01X100090Y39785D01*
G01X99000Y39785D02*
G01X99000Y40460D01*
G01X99518Y39785D02*
G01X99518Y40199D01*
G01X100090Y39785D02*
G01X100090Y40460D01*
G01X99259Y41583D02*
G01X99155Y41530D01*
G01X99051Y41426D01*
G01X99000Y41321D01*
G01X99000Y41113D01*
G01X99051Y41012D01*
G01X99155Y40907D01*
G01X99259Y40854D01*
G01X99416Y40803D01*
G01X99676Y40803D01*
G01X99830Y40854D01*
G01X99935Y40907D01*
G01X100039Y41012D01*
G01X100090Y41113D01*
G01X100090Y41321D01*
G01X100039Y41426D01*
G01X99935Y41530D01*
G01X99830Y41583D01*
G01X99000Y42289D02*
G01X100090Y42289D01*
G01X99000Y41926D02*
G01X99000Y42652D01*
G01X99622Y42995D02*
G01X99622Y43930D01*
G01X99000Y44273D02*
G01X100090Y44273D01*
G01X99000Y44273D02*
G01X99000Y44740D01*
G01X99051Y44898D01*
G01X99104Y44949D01*
G01X99208Y44999D01*
G01X99312Y44999D01*
G01X99416Y44949D01*
G01X99467Y44898D01*
G01X99518Y44740D01*
G01X99518Y44273D02*
G01X99518Y44740D01*
G01X99571Y44898D01*
G01X99622Y44949D01*
G01X99726Y44999D01*
G01X99884Y44999D01*
G01X99988Y44949D01*
G01X100039Y44898D01*
G01X100090Y44740D01*
G01X100090Y44273D01*
G01X152000Y6999D02*
G01X152000Y5910D01*
G01X152000Y6999D02*
G01X152673Y6999D01*
G01X152000Y6481D02*
G01X152414Y6481D01*
G01X152000Y5910D02*
G01X152673Y5910D01*
G01X153016Y6999D02*
G01X153016Y5910D01*
G01X153016Y6999D02*
G01X153692Y6999D01*
G01X153016Y6481D02*
G01X153432Y6481D01*
G01X154034Y6999D02*
G01X154034Y5910D01*
G01X154034Y6999D02*
G01X154710Y6999D01*
G01X154034Y6481D02*
G01X154451Y6481D01*
G01X155053Y6999D02*
G01X155053Y5910D01*
G01X155053Y6999D02*
G01X155729Y6999D01*
G01X155053Y6481D02*
G01X155470Y6481D01*
G01X155053Y5910D02*
G01X155729Y5910D01*
G01X156851Y6740D02*
G01X156801Y6844D01*
G01X156696Y6948D01*
G01X156592Y6999D01*
G01X156384Y6999D01*
G01X156280Y6948D01*
G01X156176Y6844D01*
G01X156125Y6740D01*
G01X156072Y6583D01*
G01X156072Y6324D01*
G01X156125Y6169D01*
G01X156176Y6065D01*
G01X156280Y5960D01*
G01X156384Y5910D01*
G01X156592Y5910D01*
G01X156696Y5960D01*
G01X156801Y6065D01*
G01X156851Y6169D01*
G01X157557Y6999D02*
G01X157557Y5910D01*
G01X157194Y6999D02*
G01X157921Y6999D01*
G01X158264Y6377D02*
G01X159201Y6377D01*
G01X159958Y6999D02*
G01X159544Y5910D01*
G01X159958Y6999D02*
G01X160374Y5910D01*
G01X159699Y6273D02*
G01X160217Y6273D01*
G01X28154Y38267D02*
G01X28050Y38165D01*
G01X27999Y38007D01*
G01X27999Y37799D01*
G01X28050Y37644D01*
G01X28154Y37540D01*
G01X28258Y37540D01*
G01X28362Y37593D01*
G01X28416Y37644D01*
G01X28467Y37748D01*
G01X28571Y38061D01*
G01X28621Y38165D01*
G01X28675Y38216D01*
G01X28779Y38267D01*
G01X28934Y38267D01*
G01X29038Y38165D01*
G01X29089Y38007D01*
G01X29089Y37799D01*
G01X29038Y37644D01*
G01X28934Y37540D01*
G01X27999Y38609D02*
G01X28517Y39026D01*
G01X29089Y39026D01*
G01X27999Y39443D02*
G01X28517Y39026D01*
G01X27999Y39785D02*
G01X29089Y39785D01*
G01X27999Y39785D02*
G01X29089Y40512D01*
G01X27999Y40512D02*
G01X29089Y40512D01*
G01X27999Y41218D02*
G01X29089Y41218D01*
G01X27999Y40855D02*
G01X27999Y41581D01*
G01X27999Y41924D02*
G01X29089Y41924D01*
G01X27999Y42653D02*
G01X29089Y42653D01*
G01X28517Y41924D02*
G01X28517Y42653D01*
G01X28621Y42996D02*
G01X28621Y43931D01*
G01X27999Y44274D02*
G01X29089Y44274D01*
G01X27999Y44274D02*
G01X27999Y44741D01*
G01X28050Y44896D01*
G01X28103Y44949D01*
G01X28207Y45000D01*
G01X28312Y45000D01*
G01X28416Y44949D01*
G01X28467Y44896D01*
G01X28517Y44741D01*
G01X28517Y44274D02*
G01X28517Y44741D01*
G01X28571Y44896D01*
G01X28621Y44949D01*
G01X28726Y45000D01*
G01X28883Y45000D01*
G01X28987Y44949D01*
G01X29038Y44896D01*
G01X29089Y44741D01*
G01X29089Y44274D01*
G01X77726Y6845D02*
G01X77621Y6949D01*
G01X77466Y6999D01*
G01X77258Y6999D01*
G01X77101Y6949D01*
G01X76999Y6845D01*
G01X76999Y6740D01*
G01X77050Y6636D01*
G01X77101Y6583D01*
G01X77205Y6532D01*
G01X77517Y6428D01*
G01X77621Y6377D01*
G01X77672Y6324D01*
G01X77726Y6220D01*
G01X77726Y6065D01*
G01X77621Y5961D01*
G01X77466Y5910D01*
G01X77258Y5910D01*
G01X77101Y5961D01*
G01X76999Y6065D01*
G01X78068Y6999D02*
G01X78485Y6481D01*
G01X78485Y5910D01*
G01X78899Y6999D02*
G01X78485Y6481D01*
G01X79242Y6999D02*
G01X79242Y5910D01*
G01X79242Y6999D02*
G01X79971Y5910D01*
G01X79971Y6999D02*
G01X79971Y5910D01*
G01X80677Y6999D02*
G01X80677Y5910D01*
G01X80314Y6999D02*
G01X81040Y6999D01*
G01X81383Y6999D02*
G01X81383Y5910D01*
G01X82110Y6999D02*
G01X82110Y5910D01*
G01X81383Y6481D02*
G01X82110Y6481D01*
G01X82452Y6377D02*
G01X83387Y6377D01*
G01X84147Y6999D02*
G01X83730Y5910D01*
G01X84147Y6999D02*
G01X84563Y5910D01*
G01X83888Y6273D02*
G01X84406Y6273D01*
G01X20155Y17161D02*
G01X20051Y17060D01*
G01X20000Y16902D01*
G01X20000Y16694D01*
G01X20051Y16539D01*
G01X20155Y16435D01*
G01X20259Y16435D01*
G01X20363Y16488D01*
G01X20416Y16539D01*
G01X20467Y16643D01*
G01X20571Y16956D01*
G01X20622Y17060D01*
G01X20675Y17111D01*
G01X20780Y17161D01*
G01X20935Y17161D01*
G01X21039Y17060D01*
G01X21089Y16902D01*
G01X21089Y16694D01*
G01X21039Y16539D01*
G01X20935Y16435D01*
G01X20622Y17504D02*
G01X20622Y18442D01*
G01X20155Y19511D02*
G01X20051Y19407D01*
G01X20000Y19252D01*
G01X20000Y19044D01*
G01X20051Y18889D01*
G01X20155Y18784D01*
G01X20259Y18784D01*
G01X20363Y18835D01*
G01X20416Y18889D01*
G01X20467Y18990D01*
G01X20571Y19303D01*
G01X20622Y19407D01*
G01X20675Y19460D01*
G01X20780Y19511D01*
G01X20935Y19511D01*
G01X21039Y19407D01*
G01X21089Y19252D01*
G01X21089Y19044D01*
G01X21039Y18889D01*
G01X20935Y18784D01*
G01X20000Y20217D02*
G01X21089Y20217D01*
G01X20000Y19854D02*
G01X20000Y20580D01*
G01X20000Y21236D02*
G01X20051Y21131D01*
G01X20155Y21027D01*
G01X20259Y20976D01*
G01X20416Y20923D01*
G01X20675Y20923D01*
G01X20830Y20976D01*
G01X20935Y21027D01*
G01X21039Y21131D01*
G01X21089Y21236D01*
G01X21089Y21444D01*
G01X21039Y21548D01*
G01X20935Y21652D01*
G01X20830Y21703D01*
G01X20675Y21756D01*
G01X20416Y21756D01*
G01X20259Y21703D01*
G01X20155Y21652D01*
G01X20051Y21548D01*
G01X20000Y21444D01*
G01X20000Y21236D01*
G01X20000Y22099D02*
G01X21089Y22099D01*
G01X20000Y22099D02*
G01X21089Y22513D01*
G01X20000Y22930D02*
G01X21089Y22513D01*
G01X20000Y22930D02*
G01X21089Y22930D01*
G01X20000Y23273D02*
G01X21089Y23273D01*
G01X20000Y23273D02*
G01X20000Y23740D01*
G01X20051Y23895D01*
G01X20104Y23948D01*
G01X20208Y23999D01*
G01X20363Y23999D01*
G01X20467Y23948D01*
G01X20518Y23895D01*
G01X20571Y23740D01*
G01X20571Y23273D01*
G01X90000Y16489D02*
G01X91089Y16489D01*
G01X90000Y16489D02*
G01X90000Y17162D01*
G01X90518Y16489D02*
G01X90518Y16903D01*
G01X91089Y16489D02*
G01X91089Y17162D01*
G01X90622Y17505D02*
G01X90622Y18442D01*
G01X90154Y19511D02*
G01X90050Y19407D01*
G01X90000Y19252D01*
G01X90000Y19044D01*
G01X90050Y18889D01*
G01X90154Y18785D01*
G01X90259Y18785D01*
G01X90363Y18836D01*
G01X90416Y18889D01*
G01X90467Y18991D01*
G01X90571Y19303D01*
G01X90622Y19407D01*
G01X90675Y19461D01*
G01X90779Y19511D01*
G01X90934Y19511D01*
G01X91038Y19407D01*
G01X91089Y19252D01*
G01X91089Y19044D01*
G01X91038Y18889D01*
G01X90934Y18785D01*
G01X90000Y20218D02*
G01X91089Y20218D01*
G01X90000Y19854D02*
G01X90000Y20581D01*
G01X90000Y21236D02*
G01X90050Y21132D01*
G01X90154Y21028D01*
G01X90259Y20977D01*
G01X90416Y20924D01*
G01X90675Y20924D01*
G01X90830Y20977D01*
G01X90934Y21028D01*
G01X91038Y21132D01*
G01X91089Y21236D01*
G01X91089Y21444D01*
G01X91038Y21549D01*
G01X90934Y21653D01*
G01X90830Y21703D01*
G01X90675Y21757D01*
G01X90416Y21757D01*
G01X90259Y21703D01*
G01X90154Y21653D01*
G01X90050Y21549D01*
G01X90000Y21444D01*
G01X90000Y21236D01*
G01X90000Y22100D02*
G01X91089Y22100D01*
G01X90000Y22100D02*
G01X91089Y22514D01*
G01X90000Y22930D02*
G01X91089Y22514D01*
G01X90000Y22930D02*
G01X91089Y22930D01*
G01X90000Y23273D02*
G01X91089Y23273D01*
G01X90000Y23273D02*
G01X90000Y23741D01*
G01X90050Y23895D01*
G01X90104Y23949D01*
G01X90208Y24000D01*
G01X90363Y24000D01*
G01X90467Y23949D01*
G01X90518Y23895D01*
G01X90571Y23741D01*
G01X90571Y23273D01*
G01X45999Y82999D02*
G01X45999Y81910D01*
G01X45999Y82999D02*
G01X46467Y82999D01*
G01X46621Y82949D01*
G01X46675Y82898D01*
G01X46726Y82794D01*
G01X46726Y82636D01*
G01X46675Y82532D01*
G01X46621Y82481D01*
G01X46467Y82428D01*
G01X45999Y82428D01*
G01X47068Y82999D02*
G01X47330Y81910D01*
G01X47589Y82999D02*
G01X47330Y81910D01*
G01X47589Y82999D02*
G01X47848Y81910D01*
G01X48107Y82999D02*
G01X47848Y81910D01*
G01X48450Y82999D02*
G01X48450Y81910D01*
G01X48450Y82999D02*
G01X48920Y82999D01*
G01X49075Y82949D01*
G01X49126Y82898D01*
G01X49179Y82794D01*
G01X49179Y82689D01*
G01X49126Y82585D01*
G01X49075Y82532D01*
G01X48920Y82481D01*
G01X48450Y82481D01*
G01X48816Y82481D02*
G01X49179Y81910D01*
G01X49522Y81546D02*
G01X50457Y81546D01*
G01X51526Y82844D02*
G01X51422Y82949D01*
G01X51267Y82999D01*
G01X51059Y82999D01*
G01X50904Y82949D01*
G01X50800Y82844D01*
G01X50800Y82740D01*
G01X50851Y82636D01*
G01X50904Y82585D01*
G01X51008Y82532D01*
G01X51320Y82428D01*
G01X51422Y82377D01*
G01X51475Y82326D01*
G01X51526Y82222D01*
G01X51526Y82065D01*
G01X51422Y81960D01*
G01X51267Y81910D01*
G01X51059Y81910D01*
G01X50904Y81960D01*
G01X50800Y82065D01*
G01X51869Y82999D02*
G01X52131Y81910D01*
G01X52390Y82999D02*
G01X52131Y81910D01*
G01X52390Y82999D02*
G01X52649Y81910D01*
G01X52908Y82999D02*
G01X52649Y81910D01*
G01X53251Y82999D02*
G01X53251Y81910D01*
G01X53960Y82999D02*
G01X53960Y81910D01*
G01X53594Y82999D02*
G01X54323Y82999D01*
G01X55445Y82740D02*
G01X55392Y82844D01*
G01X55288Y82949D01*
G01X55184Y82999D01*
G01X54978Y82999D01*
G01X54874Y82949D01*
G01X54770Y82844D01*
G01X54716Y82740D01*
G01X54666Y82585D01*
G01X54666Y82326D01*
G01X54716Y82169D01*
G01X54770Y82065D01*
G01X54874Y81960D01*
G01X54978Y81910D01*
G01X55184Y81910D01*
G01X55288Y81960D01*
G01X55392Y82065D01*
G01X55445Y82169D01*
G01X55788Y82999D02*
G01X55788Y81910D01*
G01X56515Y82999D02*
G01X56515Y81910D01*
G01X55788Y82481D02*
G01X56515Y82481D01*
G01X34999Y82997D02*
G01X34999Y81908D01*
G01X34999Y82997D02*
G01X35469Y82997D01*
G01X35624Y82947D01*
G01X35675Y82896D01*
G01X35728Y82792D01*
G01X35728Y82634D01*
G01X35675Y82530D01*
G01X35624Y82479D01*
G01X35469Y82426D01*
G01X34999Y82426D01*
G01X36071Y82997D02*
G01X36330Y81908D01*
G01X36589Y82997D02*
G01X36330Y81908D01*
G01X36589Y82997D02*
G01X36851Y81908D01*
G01X37110Y82997D02*
G01X36851Y81908D01*
G01X37453Y82997D02*
G01X37453Y81908D01*
G01X37453Y82997D02*
G01X37920Y82997D01*
G01X38075Y82947D01*
G01X38129Y82896D01*
G01X38179Y82792D01*
G01X38179Y82688D01*
G01X38129Y82583D01*
G01X38075Y82530D01*
G01X37920Y82479D01*
G01X37453Y82479D01*
G01X37816Y82479D02*
G01X38179Y81908D01*
G54D10*
G75*
G01X90354Y71001D02*
G03X90354Y70975I-1354J-13D01*
G01*
G75*
G01X118164Y81048D02*
G03X118164Y81048I-749J0D01*
G01*
G75*
G01X119164Y81048D02*
G03X119164Y81048I-1750J0D01*
G01*
G75*
G01X158244Y81048D02*
G03X158244Y81048I-749J0D01*
G01*
G75*
G01X159244Y81048D02*
G03X159244Y81048I-1750J0D01*
G01*
G75*
G01X118164Y66048D02*
G03X118164Y66048I-749J0D01*
G01*
G75*
G01X119164Y66048D02*
G03X119164Y66048I-1750J0D01*
G01*
G75*
G01X158244Y66048D02*
G03X158244Y66048I-749J0D01*
G01*
G75*
G01X159244Y66048D02*
G03X159244Y66048I-1750J0D01*
G01*
M00*
M02*
