;Layer: Drill PTH
;EasyEDA v6.3.22, 2020-01-02T17:57:10--6:00
;9629da53efd44d938a0aa96a75fe1ddf,91dbd57421b04f99998894d68b3b19aa,10
;Gerber Generator version 0.2
M48
METRIC,LZ,000.000
;Holesize 1 = 0.310 METRIC
T01C0.310
;Holesize 2 = 0.600 METRIC
T02C0.600
;Holesize 3 = 0.889 METRIC
T03C0.889
;Holesize 4 = 0.901 METRIC
T04C0.901
;Holesize 5 = 1.101 METRIC
T05C1.101
;Holesize 6 = 1.200 METRIC
T06C1.200
;Holesize 7 = 1.301 METRIC
T07C1.301
%
G05
G90
T01
X+138523Y+030069
X+086718Y+042350
X+136593Y+044511
X+035511Y+037259
X+176618Y+047419
X+173200Y+050864
X+106337Y+039756
X+142608Y+052522
T02
X+175350Y+071257G85X+175350Y+071262
X+175350Y+073797G85X+175350Y+073802
X+175349Y+076338G85X+175349Y+076343
X+175349Y+078878G85X+175349Y+078883
X+175349Y+081418G85X+175349Y+081423
X+177889Y+081418G85X+177889Y+081423
X+177889Y+078878G85X+177889Y+078883
X+177889Y+076338G85X+177889Y+076343
X+177889Y+073798G85X+177889Y+073803
X+177889Y+071257G85X+177889Y+071262
X+175350Y+066180
X+175350Y+063640
X+175350Y+061100
X+177890Y+066180
X+177890Y+063640
X+177890Y+061100
T03
X+168999Y+022978G85X+168999Y+023023
X+168999Y+025518G85X+168999Y+025563
X+168999Y+028058G85X+168999Y+028103
X+168999Y+030598G85X+168999Y+030643
X+168999Y+033138G85X+168999Y+033183
X+168999Y+035678G85X+168999Y+035723
X+168999Y+038218G85X+168999Y+038263
X+168999Y+040758G85X+168999Y+040803
X+168999Y+043298G85X+168999Y+043343
X+168999Y+045838G85X+168999Y+045883
X+168999Y+048378G85X+168999Y+048423
X+168999Y+050918G85X+168999Y+050963
X+168999Y+053458G85X+168999Y+053503
X+168999Y+055998G85X+168999Y+056043
X+168999Y+058538G85X+168999Y+058583
X+169000Y+061077G85X+169000Y+061122
X+169000Y+063617G85X+169000Y+063662
X+169000Y+066157G85X+169000Y+066202
X+168999Y+068698G85X+168999Y+068743
X+168999Y+071238G85X+168999Y+071283
X+168999Y+073778G85X+168999Y+073823
X+168999Y+076318G85X+168999Y+076363
X+168999Y+078858G85X+168999Y+078903
X+168999Y+081398G85X+168999Y+081443
X+184239Y+081398G85X+184239Y+081443
X+184239Y+078858G85X+184239Y+078903
X+184239Y+076318G85X+184239Y+076363
X+184239Y+073778G85X+184239Y+073823
X+184239Y+071238G85X+184239Y+071283
X+184239Y+068698G85X+184239Y+068743
X+184239Y+066158G85X+184239Y+066203
X+184239Y+063618G85X+184239Y+063663
X+184239Y+061078G85X+184239Y+061123
X+184239Y+058538G85X+184239Y+058583
X+184239Y+055998G85X+184239Y+056043
X+184239Y+053458G85X+184239Y+053503
X+184239Y+050918G85X+184239Y+050963
X+184239Y+048378G85X+184239Y+048423
X+184239Y+045838G85X+184239Y+045883
X+184239Y+043298G85X+184239Y+043343
X+184239Y+040758G85X+184239Y+040803
X+184239Y+038218G85X+184239Y+038263
X+184239Y+035678G85X+184239Y+035723
X+184239Y+033138G85X+184239Y+033183
X+184239Y+030598G85X+184239Y+030643
X+184239Y+028058G85X+184239Y+028103
X+184239Y+025518G85X+184239Y+025563
X+184239Y+022978G85X+184239Y+023023
X+059949Y+084000
X+062489Y+084000
X+065029Y+084000
X+067569Y+084000
X+070109Y+084000
X+072649Y+084000
X+075189Y+084000
X+077729Y+084000
X+080269Y+084000
X+082809Y+084000
X+085349Y+084000
X+087889Y+084000
X+090429Y+084000
X+092969Y+084000
X+095509Y+084000
X+098049Y+084000
X+102999Y+038460
X+102999Y+041000
X+102999Y+043540
X+157539Y+011000
X+154999Y+011000
X+152459Y+011000
X+033000Y+038460
X+033000Y+041000
X+033000Y+043540
X+083000Y+011000
X+080460Y+011000
X+077920Y+011000
X+025000Y+017460
X+025000Y+020000
X+025000Y+022540
X+095000Y+017460
X+095000Y+020000
X+095000Y+022540
T04
X+092000Y+071000
X+089500Y+068500
X+089500Y+073500
T05
X+024100Y+048299
X+006900Y+048299
X+006900Y+087800
X+024100Y+087800
T06
X+114920Y+081000
X+120000Y+081000
X+154999Y+081000
X+160079Y+081000
X+114920Y+066000
X+120000Y+066000
X+154999Y+066000
X+160079Y+066000
T07
X+047000Y+090269
X+047000Y+087729
X+037000Y+090269
X+037000Y+087729
M30
