G04 Layer: TopSolderMaskLayer*
G04 EasyEDA v6.3.22, 2020-01-02T17:57:10--6:00*
G04 9629da53efd44d938a0aa96a75fe1ddf,91dbd57421b04f99998894d68b3b19aa,10*
G04 Gerber Generator version 0.2*
G04 Scale: 100 percent, Rotated: No, Reflected: No *
G04 Dimensions in millimeters *
G04 leading zeros omitted , absolute positions ,3 integer and 3 decimal *
%FSLAX33Y33*%
%MOMM*%
G90*
G71D02*

%ADD30C,1.311148*%
%ADD32C,1.311199*%
%ADD34C,2.203196*%
%ADD35C,1.727200*%
%ADD37C,1.778000*%
%ADD39C,2.103196*%

%LPD*%
G36*
G01X168343Y22345D02*
G01X168343Y23655D01*
G01X169656Y23655D01*
G01X169656Y22345D01*
G01X168343Y22345D01*
G37*
G54D30*
G01X168999Y25540D03*
G01X168999Y28080D03*
G01X168999Y30620D03*
G01X168999Y33160D03*
G01X168999Y35700D03*
G01X168999Y38240D03*
G01X168999Y40780D03*
G01X168999Y43320D03*
G01X168999Y45860D03*
G01X168999Y48400D03*
G01X168999Y50940D03*
G01X168999Y53480D03*
G01X168999Y56020D03*
G01X168999Y58560D03*
G01X168999Y61100D03*
G01X168999Y63640D03*
G01X168999Y66180D03*
G01X168999Y68720D03*
G01X168999Y71260D03*
G01X168999Y73800D03*
G01X168999Y76340D03*
G01X168999Y78880D03*
G01X168999Y81420D03*
G01X184239Y81420D03*
G01X184239Y78880D03*
G01X184239Y76340D03*
G01X184239Y73800D03*
G01X184239Y71260D03*
G01X184239Y68720D03*
G01X184239Y66180D03*
G01X184239Y63640D03*
G01X184239Y61100D03*
G01X184239Y58560D03*
G01X184239Y56020D03*
G01X184239Y53480D03*
G01X184239Y50940D03*
G01X184239Y48400D03*
G01X184239Y45860D03*
G01X184239Y43320D03*
G01X184239Y40780D03*
G01X184239Y38240D03*
G01X184239Y35700D03*
G01X184239Y33160D03*
G01X184239Y30620D03*
G01X184239Y28080D03*
G01X184239Y25540D03*
G01X184239Y23000D03*
G36*
G01X174693Y70605D02*
G01X174693Y71915D01*
G01X176006Y71915D01*
G01X176006Y70605D01*
G01X174693Y70605D01*
G37*
G01X175349Y73800D03*
G01X175349Y76340D03*
G01X175349Y78880D03*
G01X175349Y81420D03*
G01X177889Y81420D03*
G01X177889Y78880D03*
G01X177889Y76340D03*
G01X177889Y73800D03*
G01X177889Y71260D03*
G54D32*
G01X175349Y66180D03*
G01X175349Y63640D03*
G01X175349Y61100D03*
G01X177889Y66180D03*
G01X177889Y63640D03*
G01X177889Y61100D03*
G36*
G01X22727Y47427D02*
G01X22727Y49172D01*
G01X25471Y49172D01*
G01X25471Y47427D01*
G01X22727Y47427D01*
G37*
G36*
G01X5529Y47427D02*
G01X5529Y49172D01*
G01X8272Y49172D01*
G01X8272Y47427D01*
G01X5529Y47427D01*
G37*
G36*
G01X5529Y86929D02*
G01X5529Y88672D01*
G01X8272Y88672D01*
G01X8272Y86929D01*
G01X5529Y86929D01*
G37*
G36*
G01X22727Y86929D02*
G01X22727Y88672D01*
G01X25471Y88672D01*
G01X25471Y86929D01*
G01X22727Y86929D01*
G37*
G54D34*
G01X114920Y81000D03*
G01X120000Y81000D03*
G01X154999Y81000D03*
G01X160079Y81000D03*
G01X114920Y66000D03*
G01X120000Y66000D03*
G01X154999Y66000D03*
G01X160079Y66000D03*
G54D35*
G01X92000Y71000D03*
G01X89500Y68500D03*
G01X89500Y73500D03*
G36*
G01X59060Y83112D02*
G01X59060Y84890D01*
G01X60838Y84890D01*
G01X60838Y83112D01*
G01X59060Y83112D01*
G37*
G54D37*
G01X62490Y84000D03*
G01X65030Y84000D03*
G01X67570Y84000D03*
G01X70110Y84000D03*
G01X72650Y84000D03*
G01X75190Y84000D03*
G01X77730Y84000D03*
G01X80270Y84000D03*
G01X82810Y84000D03*
G01X85350Y84000D03*
G01X87890Y84000D03*
G01X90430Y84000D03*
G01X92970Y84000D03*
G01X95510Y84000D03*
G01X98050Y84000D03*
G01X103000Y38460D03*
G01X103000Y41000D03*
G36*
G01X102110Y42649D02*
G01X102110Y44427D01*
G01X103888Y44427D01*
G01X103888Y42649D01*
G01X102110Y42649D01*
G37*
G01X157539Y10999D03*
G01X154999Y10999D03*
G36*
G01X151571Y10109D02*
G01X151571Y11887D01*
G01X153349Y11887D01*
G01X153349Y10109D01*
G01X151571Y10109D01*
G37*
G01X32999Y38460D03*
G01X32999Y41000D03*
G36*
G01X32110Y42649D02*
G01X32110Y44427D01*
G01X33888Y44427D01*
G01X33888Y42649D01*
G01X32110Y42649D01*
G37*
G01X83000Y10999D03*
G01X80460Y10999D03*
G36*
G01X77030Y10109D02*
G01X77030Y11887D01*
G01X78808Y11887D01*
G01X78808Y10109D01*
G01X77030Y10109D01*
G37*
G01X24999Y17459D03*
G01X24999Y19999D03*
G36*
G01X24112Y21651D02*
G01X24112Y23429D01*
G01X25890Y23429D01*
G01X25890Y21651D01*
G01X24112Y21651D01*
G37*
G01X95000Y17459D03*
G01X95000Y19999D03*
G36*
G01X94112Y21651D02*
G01X94112Y23429D01*
G01X95890Y23429D01*
G01X95890Y21651D01*
G01X94112Y21651D01*
G37*
G36*
G01X45948Y89218D02*
G01X45948Y91321D01*
G01X48051Y91321D01*
G01X48051Y89218D01*
G01X45948Y89218D01*
G37*
G54D39*
G01X46999Y87730D03*
G36*
G01X35948Y89218D02*
G01X35948Y91321D01*
G01X38051Y91321D01*
G01X38051Y89218D01*
G01X35948Y89218D01*
G37*
G01X37000Y87729D03*
M00*
M02*
