G04 Layer: BottomLayer*
G04 EasyEDA v6.3.22, 2020-01-02T17:57:10--6:00*
G04 9629da53efd44d938a0aa96a75fe1ddf,91dbd57421b04f99998894d68b3b19aa,10*
G04 Gerber Generator version 0.2*
G04 Scale: 100 percent, Rotated: No, Reflected: No *
G04 Dimensions in millimeters *
G04 leading zeros omitted , absolute positions ,3 integer and 3 decimal *
%FSLAX33Y33*%
%MOMM*%
G90*
G71D02*

%ADD11C,0.159995*%
%ADD12C,0.610006*%
%ADD13R,1.107948X1.107948*%
%ADD14C,1.107948*%
%ADD15R,1.107948X1.107999*%
%ADD16C,1.107999*%
%ADD17R,2.540000X1.540002*%
%ADD18C,1.999996*%
%ADD19C,1.524000*%
%ADD20R,1.574800X1.574800*%
%ADD21C,1.574800*%
%ADD22R,1.899996X1.899996*%
%ADD23C,1.899996*%

%LPD*%
G54D11*
G01X155000Y80998D02*
G01X156979Y82979D01*
G01X169684Y82979D01*
G01X175054Y77610D01*
G01X178181Y77610D01*
G01X184238Y71549D01*
G01X184238Y71260D01*
G01X67569Y84001D02*
G01X113789Y37780D01*
G01X127033Y37780D01*
G01X138005Y26810D01*
G01X182968Y26810D01*
G01X184238Y25540D01*
G01X90429Y84001D02*
G01X139702Y34727D01*
G01X183268Y34727D01*
G01X184238Y35700D01*
G01X184238Y38240D02*
G01X178114Y44364D01*
G01X137447Y44364D01*
G01X136885Y43803D01*
G01X133167Y43803D01*
G01X92969Y84001D01*
G01X65029Y84001D02*
G01X66362Y85332D01*
G01X73035Y85332D01*
G01X73919Y84445D01*
G01X73919Y83434D01*
G01X86354Y70998D01*
G01X92001Y70998D01*
G01X155000Y10998D02*
G01X168028Y24029D01*
G01X184094Y24029D01*
G01X185232Y25167D01*
G01X185232Y38811D01*
G01X184693Y39350D01*
G01X184190Y39350D01*
G01X176827Y46713D01*
G01X176324Y46713D01*
G01X171145Y51895D01*
G01X171145Y71656D01*
G01X168998Y73800D01*
G01X89499Y73500D02*
G01X84079Y78921D01*
G01X84079Y84603D01*
G01X84673Y85194D01*
G01X94315Y85194D01*
G01X95509Y84001D01*
G01X24099Y48298D02*
G01X26789Y48298D01*
G01X62489Y84001D01*
G01X89499Y73500D02*
G01X95095Y73500D01*
G01X138523Y30069D01*
G01X72649Y84001D02*
G01X72649Y83678D01*
G01X114000Y42327D01*
G01X125026Y42327D01*
G01X138005Y29350D01*
G01X182968Y29350D01*
G01X184238Y28080D01*
G01X32999Y43538D02*
G01X32999Y42350D01*
G01X77919Y10998D02*
G01X78112Y10998D01*
G01X102999Y43538D02*
G01X102999Y42350D01*
G01X32999Y42350D02*
G01X32486Y42350D01*
G01X25001Y34862D01*
G01X25001Y22540D01*
G01X151269Y10998D02*
G01X128841Y33427D01*
G01X114198Y33427D01*
G01X105275Y42350D01*
G01X102999Y42350D01*
G01X152460Y10998D02*
G01X151269Y10998D01*
G01X184238Y58560D02*
G01X185724Y57077D01*
G01X185724Y23074D01*
G01X172458Y9810D01*
G01X154244Y9810D01*
G01X153649Y10404D01*
G01X153649Y10998D01*
G01X152460Y10998D02*
G01X153649Y10998D01*
G01X95001Y22540D02*
G01X95001Y34946D01*
G01X102405Y42350D01*
G01X102999Y42350D01*
G01X95001Y21349D02*
G01X94404Y21349D01*
G01X93809Y20755D01*
G01X93809Y19960D01*
G01X83530Y9680D01*
G01X79433Y9680D01*
G01X78112Y10998D01*
G01X95001Y22540D02*
G01X95001Y21349D01*
G01X32999Y42350D02*
G01X46763Y42350D01*
G01X78112Y10998D01*
G01X85349Y84001D02*
G01X137459Y31890D01*
G01X182968Y31890D01*
G01X184238Y30620D01*
G01X136593Y44511D02*
G01X136593Y47600D01*
G01X148882Y59891D01*
G01X150964Y59891D01*
G01X156679Y65603D01*
G01X156679Y69098D01*
G01X168998Y81420D01*
G01X80459Y10998D02*
G01X80459Y36091D01*
G01X86718Y42350D01*
G01X87889Y84001D02*
G01X137645Y34244D01*
G01X183154Y34244D01*
G01X184238Y33160D01*
G01X114919Y80998D02*
G01X122692Y73226D01*
G01X122692Y64570D01*
G01X125262Y61999D01*
G01X152001Y61999D01*
G01X152999Y63000D01*
G01X152999Y66782D01*
G01X168714Y82497D01*
G01X169291Y82497D01*
G01X172112Y79675D01*
G01X172112Y78148D01*
G01X175191Y75070D01*
G01X178064Y75070D01*
G01X184238Y68893D01*
G01X184238Y68720D01*
G01X176618Y47419D02*
G01X176618Y54836D01*
G01X184150Y62370D01*
G01X184353Y62370D01*
G01X185859Y63876D01*
G01X185859Y77259D01*
G01X184238Y78880D01*
G01X25001Y20000D02*
G01X29913Y24913D01*
G01X29913Y31661D01*
G01X35511Y37259D01*
G01X106337Y39756D02*
G01X96349Y29769D01*
G01X96349Y21349D01*
G01X95001Y20000D01*
G01X184238Y81420D02*
G01X183172Y80351D01*
G01X183172Y78524D01*
G01X184195Y77498D01*
G01X184467Y77498D01*
G01X185280Y76685D01*
G01X185280Y65705D01*
G01X184482Y64910D01*
G01X183883Y64910D01*
G01X173200Y54227D01*
G01X173200Y50864D01*
G01X168998Y78880D02*
G01X158145Y68024D01*
G01X158145Y66388D01*
G01X144279Y52522D01*
G01X142608Y52522D01*
G01X142608Y52522D01*
G54D13*
G01X168999Y23000D03*
G54D14*
G01X168999Y25540D03*
G01X168999Y28080D03*
G01X168999Y30620D03*
G01X168999Y33160D03*
G01X168999Y35700D03*
G01X168999Y38240D03*
G01X168999Y40780D03*
G01X168999Y43320D03*
G01X168999Y45860D03*
G01X168999Y48400D03*
G01X168999Y50940D03*
G01X168999Y53480D03*
G01X168999Y56020D03*
G01X168999Y58560D03*
G01X168999Y61100D03*
G01X168999Y63640D03*
G01X168999Y66180D03*
G01X168999Y68720D03*
G01X168999Y71260D03*
G01X168999Y73800D03*
G01X168999Y76340D03*
G01X168999Y78880D03*
G01X168999Y81420D03*
G01X184239Y81420D03*
G01X184239Y78880D03*
G01X184239Y76340D03*
G01X184239Y73800D03*
G01X184239Y71260D03*
G01X184239Y68720D03*
G01X184239Y66180D03*
G01X184239Y63640D03*
G01X184239Y61100D03*
G01X184239Y58560D03*
G01X184239Y56020D03*
G01X184239Y53480D03*
G01X184239Y50940D03*
G01X184239Y48400D03*
G01X184239Y45860D03*
G01X184239Y43320D03*
G01X184239Y40780D03*
G01X184239Y38240D03*
G01X184239Y35700D03*
G01X184239Y33160D03*
G01X184239Y30620D03*
G01X184239Y28080D03*
G01X184239Y25540D03*
G01X184239Y23000D03*
G54D15*
G01X175349Y71260D03*
G54D14*
G01X175349Y73800D03*
G01X175349Y76340D03*
G01X175349Y78880D03*
G01X175349Y81420D03*
G01X177889Y81420D03*
G01X177889Y78880D03*
G01X177889Y76340D03*
G01X177889Y73800D03*
G01X177889Y71260D03*
G54D16*
G01X175349Y66180D03*
G01X175349Y63640D03*
G01X175349Y61100D03*
G01X177889Y66180D03*
G01X177889Y63640D03*
G01X177889Y61100D03*
G54D17*
G01X24100Y48299D03*
G01X6900Y48299D03*
G01X6900Y87800D03*
G01X24100Y87800D03*
G54D18*
G01X114920Y81000D03*
G01X120000Y81000D03*
G01X154999Y81000D03*
G01X160079Y81000D03*
G01X114920Y66000D03*
G01X120000Y66000D03*
G01X154999Y66000D03*
G01X160079Y66000D03*
G54D19*
G01X92000Y71000D03*
G01X89500Y68500D03*
G01X89500Y73500D03*
G54D20*
G01X59950Y84000D03*
G54D21*
G01X62490Y84000D03*
G01X65030Y84000D03*
G01X67570Y84000D03*
G01X70110Y84000D03*
G01X72650Y84000D03*
G01X75190Y84000D03*
G01X77730Y84000D03*
G01X80270Y84000D03*
G01X82810Y84000D03*
G01X85350Y84000D03*
G01X87890Y84000D03*
G01X90430Y84000D03*
G01X92970Y84000D03*
G01X95510Y84000D03*
G01X98050Y84000D03*
G01X103000Y38460D03*
G01X103000Y41000D03*
G54D20*
G01X103000Y43540D03*
G54D21*
G01X157539Y10999D03*
G01X154999Y10999D03*
G54D20*
G01X152459Y10999D03*
G54D21*
G01X32999Y38460D03*
G01X32999Y41000D03*
G54D20*
G01X32999Y43540D03*
G54D21*
G01X83000Y10999D03*
G01X80460Y10999D03*
G54D20*
G01X77920Y10999D03*
G54D21*
G01X24999Y17459D03*
G01X24999Y19999D03*
G54D20*
G01X24999Y22539D03*
G54D21*
G01X95000Y17459D03*
G01X95000Y19999D03*
G54D20*
G01X95000Y22539D03*
G54D22*
G01X46999Y90270D03*
G54D23*
G01X46999Y87730D03*
G54D22*
G01X37000Y90269D03*
G54D23*
G01X37000Y87729D03*
G54D12*
G01X138523Y30069D03*
G01X86718Y42350D03*
G01X136593Y44511D03*
G01X35511Y37259D03*
G01X176618Y47419D03*
G01X173200Y50864D03*
G01X106337Y39756D03*
G01X142608Y52522D03*
M00*
M02*
